<?xml version="1.0" standalone="no"?>
<!DOCTYPE svg PUBLIC "-//W3C//DTD SVG 20010904//EN"
 "http://www.w3.org/TR/2001/REC-SVG-20010904/DTD/svg10.dtd">
<svg version="1.0" xmlns="http://www.w3.org/2000/svg"
 width="512.000000pt" height="512.000000pt" viewBox="0 0 512.000000 512.000000"
 preserveAspectRatio="xMidYMid meet">
<metadata>
Created by potrace 1.14, written by Peter Selinger 2001-2017
</metadata>
<g transform="translate(0.000000,512.000000) scale(0.100000,-0.100000)"
fill="#000000" stroke="none">
<path d="M4140 5111 c-119 -37 -197 -148 -188 -268 5 -69 27 -119 74 -167 46
-47 82 -65 152 -74 108 -15 218 45 268 144 27 56 26 174 -3 229 -28 54 -65 89
-121 116 -48 24 -139 33 -182 20z"/>
<path d="M2408 4755 c-2 -1 -32 -6 -68 -9 -83 -9 -128 -15 -160 -22 -14 -3
-36 -7 -50 -9 -14 -2 -61 -13 -105 -25 -44 -12 -88 -23 -98 -25 -97 -21 -336
-127 -490 -217 l-70 -41 -19 24 c-119 150 -248 213 -428 212 -313 -2 -553
-315 -475 -617 32 -121 118 -245 214 -306 l23 -16 -28 -49 c-120 -213 -217
-474 -249 -665 -3 -19 -10 -60 -15 -90 -16 -88 -21 -143 -24 -258 l-4 -108
-75 -110 c-131 -191 -221 -383 -264 -564 -12 -53 -17 -114 -17 -210 1 -177 17
-235 123 -428 7 -14 51 -62 96 -106 133 -132 312 -219 543 -265 133 -27 166
-31 327 -38 132 -5 142 -7 175 -33 252 -194 670 -360 995 -396 28 -3 57 -8 65
-11 28 -10 355 -11 445 -2 187 19 390 68 595 144 58 21 253 116 308 150 l42
26 1 -28 c0 -15 2 -39 5 -53 2 -14 6 -36 8 -50 16 -104 95 -255 179 -341 48
-50 122 -109 135 -109 6 0 12 -4 14 -8 6 -15 122 -64 193 -82 101 -25 239 -24
347 4 224 59 412 237 485 463 33 101 40 264 17 368 -49 215 -194 391 -396 484
-66 30 -192 61 -248 61 l-30 0 31 53 c172 291 279 659 295 1014 l5 126 58 81
c276 390 365 765 254 1065 -46 126 -169 281 -285 359 -195 133 -474 206 -802
211 -92 2 -101 4 -135 31 -67 53 -215 141 -336 200 -221 107 -502 186 -740
208 -89 9 -360 13 -367 7z m2122 -1033 c123 -92 157 -200 120 -376 l-12 -58
-52 124 c-46 111 -126 262 -187 355 l-21 33 59 -26 c32 -14 74 -38 93 -52z
m-4011 -1976 c30 -81 124 -267 177 -349 51 -78 47 -80 -59 -24 -117 61 -177
154 -179 274 -1 73 19 180 32 166 4 -4 17 -34 29 -67z"/>
<path d="M194 512 c-200 -58 -258 -301 -106 -445 72 -69 205 -84 297 -33 131
71 174 232 100 362 -56 97 -183 148 -291 116z"/>
</g>
</svg>
